{"accessors" : [{"bufferView" : 0, "byteOffset" : 0, "componentType" : 5123, "count" : 11880, "type" : "SCALAR", "max" : [3040], "min" : [0]}, {"bufferView" : 1, "byteOffset" : 0, "componentType" : 5126, "count" : 3041, "type" : "VEC3", "max" : [0.16541221737861633, 0.027756690979003906, 0.172408327460289], "min" : [-0.16541218757629395, -0.027756668627262115, -0.1724083423614502], "name" : "POSITION"}, {"bufferView" : 1, "byteOffset" : 12, "componentType" : 5126, "count" : 3041, "type" : "VEC3", "max" : [0.9942978024482727, 1.0000044107437134, 0.9999854564666748], "min" : [-0.9942895770072937, -1.0000044107437134, -0.9999854564666748], "name" : "NORMAL"}, {"bufferView" : 1, "byteOffset" : 24, "componentType" : 5126, "count" : 3041, "type" : "VEC2", "max" : [1, 1.9900000095367432], "min" : [-1.862645149230957E-07, 1], "name" : "TEXCOORD_0"}, {"bufferView" : 0, "byteOffset" : 23760, "componentType" : 5123, "count" : 1524, "type" : "SCALAR", "max" : [480], "min" : [0]}, {"bufferView" : 2, "byteOffset" : 0, "componentType" : 5126, "count" : 481, "type" : "VEC3", "max" : [0.3451693058013916, 0.11240443587303162, 0.3451693058013916], "min" : [-0.3451693058013916, -0.11240443587303162, -0.3451693058013916], "name" : "POSITION"}, {"bufferView" : 2, "byteOffset" : 12, "componentType" : 5126, "count" : 481, "type" : "VEC3", "max" : [0.9915051460266113, 0.9976335763931274, 0.9915051460266113], "min" : [-0.9915051460266113, -0.9904564619064331, -0.9915051460266113], "name" : "NORMAL"}, {"bufferView" : 2, "byteOffset" : 24, "componentType" : 5126, "count" : 481, "type" : "VEC2", "max" : [1, 1.9899122714996338], "min" : [0, 1], "name" : "TEXCOORD_0"}, {"bufferView" : 0, "byteOffset" : 26808, "componentType" : 5123, "count" : 11880, "type" : "SCALAR", "max" : [3040], "min" : [0]}, {"bufferView" : 3, "byteOffset" : 0, "componentType" : 5126, "count" : 3041, "type" : "VEC3", "max" : [0.16541221737861633, 0.027756690979003906, 0.172408327460289], "min" : [-0.16541218757629395, -0.027756668627262115, -0.1724083423614502], "name" : "POSITION"}, {"bufferView" : 3, "byteOffset" : 12, "componentType" : 5126, "count" : 3041, "type" : "VEC3", "max" : [0.9942978024482727, 1.0000044107437134, 0.9999854564666748], "min" : [-0.9942895770072937, -1.0000044107437134, -0.9999854564666748], "name" : "NORMAL"}, {"bufferView" : 3, "byteOffset" : 24, "componentType" : 5126, "count" : 3041, "type" : "VEC2", "max" : [1, 1.9900000095367432], "min" : [-1.862645149230957E-07, 1], "name" : "TEXCOORD_0"}, {"bufferView" : 0, "byteOffset" : 50568, "componentType" : 5123, "count" : 33612, "type" : "SCALAR", "max" : [6597], "min" : [0]}, {"bufferView" : 4, "byteOffset" : 0, "componentType" : 5126, "count" : 6598, "type" : "VEC3", "max" : [0.6814438104629517, 0.08500000089406967, 0.3291711211204529], "min" : [-0.6773412823677063, -0.08500000089406967, -0.3291711211204529], "name" : "POSITION"}, {"bufferView" : 4, "byteOffset" : 12, "componentType" : 5126, "count" : 6598, "type" : "VEC3", "max" : [0.9969260096549988, 1.0000044107437134, 0.9968538284301758], "min" : [-0.9969105124473572, -1.0000044107437134, -0.9969223737716675], "name" : "NORMAL"}, {"bufferView" : 4, "byteOffset" : 24, "componentType" : 5126, "count" : 6598, "type" : "VEC2", "max" : [1, 2], "min" : [0, 1], "name" : "TEXCOORD_0"}], "asset" : {"generator" : "Aspose.3D 24.4.1", "version" : "2.0"}, "buffers" : [{"uri" : "data:application/octet-stream;base64,", "byteLength" : 538964}], "bufferViews" : [{"buffer" : 0, "byteOffset" : 0, "byteLength" : 117792, "target" : 34963}, {"buffer" : 0, "byteOffset" : 117796, "byteLength" : 97312, "byteStride" : 32, "target" : 34962}, {"buffer" : 0, "byteOffset" : 215112, "byteLength" : 15392, "byteStride" : 32, "target" : 34962}, {"buffer" : 0, "byteOffset" : 230508, "byteLength" : 97312, "byteStride" : 32, "target" : 34962}, {"buffer" : 0, "byteOffset" : 327824, "byteLength" : 211136, "byteStride" : 32, "target" : 34962}], "materials" : [{"name" : "a2.002", "pbrMetallicRoughness" : {"baseColorFactor" : [0.8879231810569763, 0.24228082597255707, 0.0015177276218309999, 1], "metallicFactor" : 0, "roughnessFactor" : 0.5}, "emissiveFactor" : [0, 0, 0], "alphaMode" : "OPAQUE", "doubleSided" : true}, {"name" : "a2.002", "pbrMetallicRoughness" : {"baseColorFactor" : [0.8879231810569763, 0.24228082597255707, 0.0015177276218309999, 1], "metallicFactor" : 0, "roughnessFactor" : 0.5}, "emissiveFactor" : [0, 0, 0], "alphaMode" : "OPAQUE", "doubleSided" : true}, {"name" : "Material.001", "pbrMetallicRoughness" : {"baseColorFactor" : [0.020288532599806786, 0.020288538187742233, 0.020288556814193726, 1], "metallicFactor" : 0, "roughnessFactor" : 0.5}, "emissiveFactor" : [0, 0, 0], "alphaMode" : "OPAQUE", "doubleSided" : true}, {"name" : "a2.006", "pbrMetallicRoughness" : {"baseColorFactor" : [0.7454034090042114, 0.7835371494293213, 0.7758223414421082, 1], "metallicFactor" : 0, "roughnessFactor" : 0.5}, "emissiveFactor" : [0, 0, 0], "alphaMode" : "OPAQUE", "doubleSided" : true}], "meshes" : [{"primitives" : [{"attributes" : {"POSITION" : 1, "NORMAL" : 2, "TEXCOORD_0" : 3}, "indices" : 0, "material" : 0, "mode" : 4}]}, {"primitives" : [{"attributes" : {"POSITION" : 5, "NORMAL" : 6, "TEXCOORD_0" : 7}, "indices" : 4, "material" : 1, "mode" : 4}]}, {"primitives" : [{"attributes" : {"POSITION" : 9, "NORMAL" : 10, "TEXCOORD_0" : 11}, "indices" : 8, "material" : 2, "mode" : 4}]}, {"primitives" : [{"attributes" : {"POSITION" : 13, "NORMAL" : 14, "TEXCOORD_0" : 15}, "indices" : 12, "material" : 3, "mode" : 4}]}], "nodes" : [{"matrix" : [4.936334331114411, -1.898624705058743, 1.7174969661103558, 0, 1.6517729802444736, -0.48832981583790264, -5.2872632038834615, 0, 1.9560723712778336, 5.203724588127804, 0.13047459955411983, 0, -1.052343487739563, -0.6642168760299683, 0.3849508464336395, 1], "mesh" : 0, "name" : "Cylinder.011"}, {"matrix" : [2.7075113799445396, 0.0005797802653312405, 0.8252767248862616, 0, -0.7847887080583363, 0.22638154356304516, 2.574521877850525, 0, -0.06861750339691919, -2.82053522010423, 0.22709725703490957, 0, 0.37792277336120605, 0.12829673290252686, 0.1636103093624115, 1], "mesh" : 1, "name" : "Cylinder.010"}, {"matrix" : [9.105311279689916, 0.07972926764560084, 2.8403039946828468, 0, 2.836042432314192, -0.8414833889469797, -9.068028286875316, 0, 0.1747766364841496, 9.500839596244909, -0.8269851729401032, 0, 0.39448440074920654, 0.12345749139785767, 0.11083486676216125, 1], "mesh" : 2, "name" : "Cylinder.009"}, {"matrix" : [0.8600586328733253, 1.8199656156390354E-08, 0.26989816559977375, 0, -0.26887111985114087, 0.07856343291856942, 0.8567858761433333, 0, -0.02352319502356494, -0.8979831382875213, 0.07495913923410392, 0, 0.2824680805206299, 0.15618830919265747, 0.4677865505218506, 1], "mesh" : 3, "name" : "Text"}], "scene" : 0, "scenes" : [{"nodes" : [0, 1, 2, 3]}]}