{"accessors" : [{"bufferView" : 0, "byteOffset" : 0, "componentType" : 5123, "count" : 4986, "type" : "SCALAR", "max" : [965], "min" : [0]}, {"bufferView" : 1, "byteOffset" : 0, "componentType" : 5126, "count" : 966, "type" : "VEC3", "max" : [1.4448268413543701, 1.8626506328582764, 1.444823980331421], "min" : [-1.4448198080062866, -1.122215986251831, -1.444823145866394], "name" : "POSITION"}, {"bufferView" : 1, "byteOffset" : 12, "componentType" : 5126, "count" : 966, "type" : "VEC3", "max" : [1.0000044107437134, 1.0000044107437134, 1.0000044107437134], "min" : [-1.0000044107437134, -1.0000044107437134, -1.0000044107437134], "name" : "NORMAL"}, {"bufferView" : 1, "byteOffset" : 24, "componentType" : 5126, "count" : 966, "type" : "VEC2", "max" : [1.0000001192092896, 2], "min" : [0, 1], "name" : "TEXCOORD_0"}, {"bufferView" : 0, "byteOffset" : 9972, "componentType" : 5123, "count" : 1908, "type" : "SCALAR", "max" : [577], "min" : [0]}, {"bufferView" : 2, "byteOffset" : 0, "componentType" : 5126, "count" : 578, "type" : "VEC3", "max" : [0.53180330991745, 0.53180330991745, 0.11800849437713623], "min" : [-0.53180330991745, -0.53180330991745, -0.11800909042358398], "name" : "POSITION"}, {"bufferView" : 2, "byteOffset" : 12, "componentType" : 5126, "count" : 578, "type" : "VEC3", "max" : [0.9952006936073303, 0.9952006936073303, 0.9946314096450806], "min" : [-0.9952006936073303, -0.9952006936073303, -0.9946314096450806], "name" : "NORMAL"}, {"bufferView" : 2, "byteOffset" : 24, "componentType" : 5126, "count" : 578, "type" : "VEC2", "max" : [1, 1.9899201393127441], "min" : [0, 1], "name" : "TEXCOORD_0"}, {"bufferView" : 0, "byteOffset" : 13788, "componentType" : 5123, "count" : 1428, "type" : "SCALAR", "max" : [418], "min" : [0]}, {"bufferView" : 3, "byteOffset" : 0, "componentType" : 5126, "count" : 419, "type" : "VEC3", "max" : [0.65434330701828, 0.23245947062969208, 0.06530610471963882], "min" : [-0.65434330701828, -0.2324594259262085, -0.06530611217021942], "name" : "POSITION"}, {"bufferView" : 3, "byteOffset" : 12, "componentType" : 5126, "count" : 419, "type" : "VEC3", "max" : [0.9921406507492065, 0.9921406507492065, 0.9947357773780823], "min" : [-0.9921406507492065, -0.9921406507492065, -0.9947357773780823], "name" : "NORMAL"}, {"bufferView" : 3, "byteOffset" : 24, "componentType" : 5126, "count" : 419, "type" : "VEC2", "max" : [0.875, 2], "min" : [0.125, 1], "name" : "TEXCOORD_0"}, {"bufferView" : 0, "byteOffset" : 16644, "componentType" : 5123, "count" : 5148, "type" : "SCALAR", "max" : [1466], "min" : [0]}, {"bufferView" : 4, "byteOffset" : 0, "componentType" : 5126, "count" : 1467, "type" : "VEC3", "max" : [0.03394085168838501, 0.49411535263061523, 0.048784904181957245], "min" : [-1.8660004138946533, -0.18010425567626953, -0.04908572882413864], "name" : "POSITION"}, {"bufferView" : 4, "byteOffset" : 12, "componentType" : 5126, "count" : 1467, "type" : "VEC3", "max" : [0.99663245677948, 0.9938539862632751, 0.9938539862632751], "min" : [-0.99663245677948, -0.9938539862632751, -0.9938539862632751], "name" : "NORMAL"}, {"bufferView" : 4, "byteOffset" : 24, "componentType" : 5126, "count" : 1467, "type" : "VEC2", "max" : [0.875, 2], "min" : [0.125, 1], "name" : "TEXCOORD_0"}, {"bufferView" : 0, "byteOffset" : 26940, "componentType" : 5123, "count" : 4380, "type" : "SCALAR", "max" : [949], "min" : [0]}, {"bufferView" : 5, "byteOffset" : 0, "componentType" : 5126, "count" : 950, "type" : "VEC3", "max" : [0.0316472090780735, 0.05596035346388817, 0.005491920281201601], "min" : [-0.0316472090780735, -0.05596035346388817, -0.005491920281201601], "name" : "POSITION"}, {"bufferView" : 5, "byteOffset" : 12, "componentType" : 5126, "count" : 950, "type" : "VEC3", "max" : [0.995140790939331, 0.9975863695144653, 1.0000044107437134], "min" : [-0.995140790939331, -0.9953261017799377, -0.9969184398651123], "name" : "NORMAL"}, {"bufferView" : 5, "byteOffset" : 24, "componentType" : 5126, "count" : 950, "type" : "VEC2", "max" : [0.8751240372657776, 2], "min" : [0.12487645447254181, 1.2496984004974365], "name" : "TEXCOORD_0"}, {"bufferView" : 0, "byteOffset" : 35700, "componentType" : 5123, "count" : 420, "type" : "SCALAR", "max" : [215], "min" : [0]}, {"bufferView" : 6, "byteOffset" : 0, "componentType" : 5126, "count" : 216, "type" : "VEC3", "max" : [0.030282899737358093, 0.054755520075559616, 0.030282899737358093], "min" : [-0.030282899737358093, -0.054755520075559616, -0.030282899737358093], "name" : "POSITION"}, {"bufferView" : 6, "byteOffset" : 12, "componentType" : 5126, "count" : 216, "type" : "VEC3", "max" : [1.0000044107437134, 1.0000044107437134, 1.0000044107437134], "min" : [-1.0000044107437134, -1.0000044107437134, -1.0000044107437134], "name" : "NORMAL"}, {"bufferView" : 6, "byteOffset" : 24, "componentType" : 5126, "count" : 216, "type" : "VEC2", "max" : [0.875, 2], "min" : [0.125, 1], "name" : "TEXCOORD_0"}, {"bufferView" : 0, "byteOffset" : 36540, "componentType" : 5123, "count" : 1428, "type" : "SCALAR", "max" : [418], "min" : [0]}, {"bufferView" : 7, "byteOffset" : 0, "componentType" : 5126, "count" : 419, "type" : "VEC3", "max" : [0.65434330701828, 0.23245947062969208, 0.06530610471963882], "min" : [-0.65434330701828, -0.2324594259262085, -0.06530611217021942], "name" : "POSITION"}, {"bufferView" : 7, "byteOffset" : 12, "componentType" : 5126, "count" : 419, "type" : "VEC3", "max" : [0.9921406507492065, 0.9921406507492065, 0.9947357773780823], "min" : [-0.9921406507492065, -0.9921406507492065, -0.9947357773780823], "name" : "NORMAL"}, {"bufferView" : 7, "byteOffset" : 24, "componentType" : 5126, "count" : 419, "type" : "VEC2", "max" : [0.875, 2], "min" : [0.125, 1], "name" : "TEXCOORD_0"}, {"bufferView" : 0, "byteOffset" : 39396, "componentType" : 5123, "count" : 2364, "type" : "SCALAR", "max" : [596], "min" : [0]}, {"bufferView" : 8, "byteOffset" : 0, "componentType" : 5126, "count" : 597, "type" : "VEC3", "max" : [0.24804745614528656, 0.2789542078971863, 0.053476348519325256], "min" : [-0.2480790913105011, -0.27897968888282776, -0.0651760995388031], "name" : "POSITION"}, {"bufferView" : 8, "byteOffset" : 12, "componentType" : 5126, "count" : 597, "type" : "VEC3", "max" : [0.9917206764221191, 0.99410080909729, 0.9975745677947998], "min" : [-0.9917284846305847, -0.9935418367385864, -0.9949630498886108], "name" : "NORMAL"}, {"bufferView" : 8, "byteOffset" : 24, "componentType" : 5126, "count" : 597, "type" : "VEC2", "max" : [0.875, 2], "min" : [0.125, 1], "name" : "TEXCOORD_0"}, {"bufferView" : 0, "byteOffset" : 44124, "componentType" : 5123, "count" : 1068, "type" : "SCALAR", "max" : [214], "min" : [0]}, {"bufferView" : 9, "byteOffset" : 0, "componentType" : 5126, "count" : 215, "type" : "VEC3", "max" : [0.9489179253578186, 0.5414518713951111, 0.22000008821487427], "min" : [-0.8079949021339417, -0.6630863547325134, -0.22000008821487427], "name" : "POSITION"}, {"bufferView" : 9, "byteOffset" : 12, "componentType" : 5126, "count" : 215, "type" : "VEC3", "max" : [0.9999805688858032, 1.0000044107437134, 0.9998753070831299], "min" : [-0.999977707862854, -1.0000044107437134, -0.9998753070831299], "name" : "NORMAL"}, {"bufferView" : 9, "byteOffset" : 24, "componentType" : 5126, "count" : 215, "type" : "VEC2", "max" : [1.0000001192092896, 2], "min" : [0, 1], "name" : "TEXCOORD_0"}], "asset" : {"generator" : "Aspose.3D 24.4.1", "version" : "2.0"}, "buffers" : [{"uri" : "data:application/octet-stream;base64,", "byteLength" : 232764}], "bufferViews" : [{"buffer" : 0, "byteOffset" : 0, "byteLength" : 46260, "target" : 34963}, {"buffer" : 0, "byteOffset" : 46264, "byteLength" : 30912, "byteStride" : 32, "target" : 34962}, {"buffer" : 0, "byteOffset" : 77180, "byteLength" : 18496, "byteStride" : 32, "target" : 34962}, {"buffer" : 0, "byteOffset" : 95680, "byteLength" : 13408, "byteStride" : 32, "target" : 34962}, {"buffer" : 0, "byteOffset" : 109092, "byteLength" : 46944, "byteStride" : 32, "target" : 34962}, {"buffer" : 0, "byteOffset" : 156040, "byteLength" : 30400, "byteStride" : 32, "target" : 34962}, {"buffer" : 0, "byteOffset" : 186444, "byteLength" : 6912, "byteStride" : 32, "target" : 34962}, {"buffer" : 0, "byteOffset" : 193360, "byteLength" : 13408, "byteStride" : 32, "target" : 34962}, {"buffer" : 0, "byteOffset" : 206772, "byteLength" : 19104, "byteStride" : 32, "target" : 34962}, {"buffer" : 0, "byteOffset" : 225880, "byteLength" : 6880, "byteStride" : 32, "target" : 34962}], "materials" : [{"name" : "a2.006", "pbrMetallicRoughness" : {"baseColorFactor" : [0.7454034090042114, 0.7835371494293213, 0.7758223414421082, 1], "metallicFactor" : 0, "roughnessFactor" : 0.5}, "emissiveFactor" : [0, 0, 0], "alphaMode" : "OPAQUE", "doubleSided" : true}, {"name" : "a2.002", "pbrMetallicRoughness" : {"baseColorFactor" : [0.8879231810569763, 0.24228082597255707, 0.0015177276218309999, 1], "metallicFactor" : 0, "roughnessFactor" : 0.5}, "emissiveFactor" : [0, 0, 0], "alphaMode" : "OPAQUE", "doubleSided" : true}, {"name" : "Material.001", "pbrMetallicRoughness" : {"baseColorFactor" : [0.020288532599806786, 0.020288538187742233, 0.020288556814193726, 1], "metallicFactor" : 0, "roughnessFactor" : 0.5}, "emissiveFactor" : [0, 0, 0], "alphaMode" : "OPAQUE", "doubleSided" : true}, {"name" : "a2.002", "pbrMetallicRoughness" : {"baseColorFactor" : [0.8879231810569763, 0.24228082597255707, 0.0015177276218309999, 1], "metallicFactor" : 0, "roughnessFactor" : 0.5}, "emissiveFactor" : [0, 0, 0], "alphaMode" : "OPAQUE", "doubleSided" : true}, {"name" : "Material.001", "pbrMetallicRoughness" : {"baseColorFactor" : [0.020288532599806786, 0.020288538187742233, 0.020288556814193726, 1], "metallicFactor" : 0, "roughnessFactor" : 0.5}, "emissiveFactor" : [0, 0, 0], "alphaMode" : "OPAQUE", "doubleSided" : true}, {"name" : "Material.001", "pbrMetallicRoughness" : {"baseColorFactor" : [0.020288532599806786, 0.020288538187742233, 0.020288556814193726, 1], "metallicFactor" : 0, "roughnessFactor" : 0.5}, "emissiveFactor" : [0, 0, 0], "alphaMode" : "OPAQUE", "doubleSided" : true}, {"name" : "Material.001", "pbrMetallicRoughness" : {"baseColorFactor" : [0.020288532599806786, 0.020288538187742233, 0.020288556814193726, 1], "metallicFactor" : 0, "roughnessFactor" : 0.5}, "emissiveFactor" : [0, 0, 0], "alphaMode" : "OPAQUE", "doubleSided" : true}, {"name" : "a2.002", "pbrMetallicRoughness" : {"baseColorFactor" : [0.8879231810569763, 0.24228082597255707, 0.0015177276218309999, 1], "metallicFactor" : 0, "roughnessFactor" : 0.5}, "emissiveFactor" : [0, 0, 0], "alphaMode" : "OPAQUE", "doubleSided" : true}, {"name" : "a2.006", "pbrMetallicRoughness" : {"baseColorFactor" : [0.7454034090042114, 0.7835371494293213, 0.7758223414421082, 1], "metallicFactor" : 0, "roughnessFactor" : 0.5}, "emissiveFactor" : [0, 0, 0], "alphaMode" : "OPAQUE", "doubleSided" : true}], "meshes" : [{"primitives" : [{"attributes" : {"POSITION" : 1, "NORMAL" : 2, "TEXCOORD_0" : 3}, "indices" : 0, "material" : 0, "mode" : 4}]}, {"primitives" : [{"attributes" : {"POSITION" : 5, "NORMAL" : 6, "TEXCOORD_0" : 7}, "indices" : 4, "material" : 1, "mode" : 4}]}, {"primitives" : [{"attributes" : {"POSITION" : 9, "NORMAL" : 10, "TEXCOORD_0" : 11}, "indices" : 8, "material" : 2, "mode" : 4}]}, {"primitives" : [{"attributes" : {"POSITION" : 13, "NORMAL" : 14, "TEXCOORD_0" : 15}, "indices" : 12, "material" : 3, "mode" : 4}]}, {"primitives" : [{"attributes" : {"POSITION" : 17, "NORMAL" : 18, "TEXCOORD_0" : 19}, "indices" : 16, "material" : 4, "mode" : 4}]}, {"primitives" : [{"attributes" : {"POSITION" : 21, "NORMAL" : 22, "TEXCOORD_0" : 23}, "indices" : 20, "material" : 5, "mode" : 4}]}, {"primitives" : [{"attributes" : {"POSITION" : 25, "NORMAL" : 26, "TEXCOORD_0" : 27}, "indices" : 24, "material" : 6, "mode" : 4}]}, {"primitives" : [{"attributes" : {"POSITION" : 29, "NORMAL" : 30, "TEXCOORD_0" : 31}, "indices" : 28, "material" : 7, "mode" : 4}]}, {"primitives" : [{"attributes" : {"POSITION" : 33, "NORMAL" : 34, "TEXCOORD_0" : 35}, "indices" : 32, "material" : 8, "mode" : 4}]}], "nodes" : [{"matrix" : [0.15745688720339351, -0.029422752246343352, 0.06359347795873352, 0, 0.03842402733077676, 0.1670557404584959, -0.01784598145853111, 0, -0.058595429472480365, 0.030482562093160248, 0.15918511067228308, 0, 0.07428218424320221, 0.9952976107597351, -0.038732051849365234, 1], "mesh" : 0, "name" : "Sphere.004"}, {"matrix" : [0.7923957957057313, -0.14806886843944472, 0.32003175695730535, 0, 0.19336738618836605, 0.8407014134285961, -0.08980919865892079, 0, -0.2948791582133838, 0.15340227327005077, 0.8010927082520508, 0, 0.10280035436153412, 0.9804621338844299, -0.11620694398880005, 1], "mesh" : 1, "name" : "Cylinder.016"}, {"matrix" : [0.8703254697273557, -0.16263098090669023, 0.3515058593175529, 0, 0.2123845119513834, 0.9233819728335915, -0.09864169126458558, 0, -0.3238796648375402, 0.16848896632780533, 0.8798779310095702, 0, -0.15671731531620026, 0.1395074427127838, 0.15503259003162384, 1], "mesh" : 2, "name" : "Cube.067"}, {"matrix" : [1.035857248357642, -0.1935636864450852, 0.41686187105085654, 0, 0.2545216088532346, 1.0974333743488367, -0.12288195350558197, 0, -0.3827002541181009, 0.20594733878952462, 1.0465979024157948, 0, 1.0560991764068604, 0.4649505019187927, 0.10459914803504944, 1], "mesh" : 3, "name" : "Cube.066"}, {"matrix" : [30.032921542794156, -5.612049647272515, 12.086201945155814, 0, 7.339773009471161, 31.839333694509016, -3.454427308601136, 0, -11.122013177630278, 5.857490652469543, 30.356854772842368, 0, -0.004280552268028259, 0.16196036338806152, -0.21938395500183105, 1], "mesh" : 4, "name" : "Cube.065"}, {"matrix" : [30.032921542794156, -5.612049647272515, 12.086201945155814, 0, 7.339773009471161, 31.839333694509016, -3.454427308601136, 0, -1.2221555629556846, 0.6436572832223404, 3.335798865001169, 0, -0.0203428715467453, 0.17041966319084167, -0.17554229497909546, 1], "mesh" : 5, "name" : "Cube.064"}, {"matrix" : [0.8703254697273557, -0.16263098090669023, 0.3515058593175529, 0, 0.2123845119513834, 0.9233819728335915, -0.09864169126458558, 0, -0.3238796648375402, 0.16848896632780533, 0.8798779310095702, 0, -0.28312909603118896, -0.41357940435409546, 0.21280550956726074, 1], "mesh" : 6, "name" : "Cube.001"}, {"matrix" : [2.3972199525845204, -0.4446196153665311, 0.952908760392836, 0, 0.5788756669426578, 2.5383815842272393, -0.27188134263664326, 0, -0.8778524132807362, 0.4597053831972004, 2.422896519333916, 0, 0.11593244969844818, -1.1510847806930542, 0.5209786891937256, 1], "mesh" : 7, "name" : "Cube.160"}, {"matrix" : [0.3864118109483982, -0.07379578873376824, 0.15452569008533998, 0, 0.09615677589226454, 0.40909588852410356, -0.0450835095890185, 0, -0.14169638242530136, 0.076372933795985, 0.3908033442759449, 0, 0.07774947583675385, -1.1389679908752441, 0.5526841878890991, 1], "mesh" : 8, "name" : "Cube.015"}], "scene" : 0, "scenes" : [{"nodes" : [0, 1, 2, 3, 4, 5, 6, 7, 8]}]}