{"accessors" : [{"bufferView" : 0, "byteOffset" : 0, "componentType" : 5123, "count" : 3372, "type" : "SCALAR", "max" : [850], "min" : [0]}, {"bufferView" : 1, "byteOffset" : 0, "componentType" : 5126, "count" : 851, "type" : "VEC3", "max" : [0.7087600231170654, 0.9429614543914795, 0.3636660873889923], "min" : [-0.7087600827217102, -0.09612321853637695, -0.5968886613845825], "name" : "POSITION"}, {"bufferView" : 1, "byteOffset" : 12, "componentType" : 5126, "count" : 851, "type" : "VEC3", "max" : [1.0000044107437134, 0.997748613357544, 0.9981710910797119], "min" : [-1.0000044107437134, -0.9969184398651123, -0.9708625078201294], "name" : "NORMAL"}, {"bufferView" : 1, "byteOffset" : 24, "componentType" : 5126, "count" : 851, "type" : "VEC2", "max" : [0.8749634027481079, 2], "min" : [0.125, 1.010653018951416], "name" : "TEXCOORD_0"}, {"bufferView" : 0, "byteOffset" : 6744, "componentType" : 5123, "count" : 2724, "type" : "SCALAR", "max" : [455], "min" : [0]}, {"bufferView" : 2, "byteOffset" : 0, "componentType" : 5126, "count" : 456, "type" : "VEC3", "max" : [0.75440514087677, 0.5075128078460693, 0.06149392947554588], "min" : [-0.75440514087677, -0.4393698573112488, -1.4901161193847656E-08], "name" : "POSITION"}, {"bufferView" : 2, "byteOffset" : 12, "componentType" : 5126, "count" : 456, "type" : "VEC3", "max" : [0.9969184398651123, 0.9969184398651123, 0.9969184398651123], "min" : [-0.9969184398651123, -0.9969184398651123, -0.9969184398651123], "name" : "NORMAL"}, {"bufferView" : 2, "byteOffset" : 24, "componentType" : 5126, "count" : 456, "type" : "VEC2", "max" : [0, 2], "min" : [0, 2], "name" : "TEXCOORD_0"}, {"bufferView" : 0, "byteOffset" : 12192, "componentType" : 5123, "count" : 5688, "type" : "SCALAR", "max" : [949], "min" : [0]}, {"bufferView" : 3, "byteOffset" : 0, "componentType" : 5126, "count" : 950, "type" : "VEC3", "max" : [0.8470807671546936, 0.6246868371963501, 0.20081104338169098], "min" : [-0.8470807671546936, -0.6246868371963501, -0], "name" : "POSITION"}, {"bufferView" : 3, "byteOffset" : 12, "componentType" : 5126, "count" : 950, "type" : "VEC3", "max" : [1.0000044107437134, 1.0000044107437134, 0.9979922771453857], "min" : [-1.0000044107437134, -1.0000044107437134, -0.9969184398651123], "name" : "NORMAL"}, {"bufferView" : 3, "byteOffset" : 24, "componentType" : 5126, "count" : 950, "type" : "VEC2", "max" : [0, 2], "min" : [0, 2], "name" : "TEXCOORD_0"}, {"bufferView" : 0, "byteOffset" : 23568, "componentType" : 5123, "count" : 11880, "type" : "SCALAR", "max" : [3040], "min" : [0]}, {"bufferView" : 4, "byteOffset" : 0, "componentType" : 5126, "count" : 3041, "type" : "VEC3", "max" : [0.16546031832695007, 0.022077269852161407, 0.17237825691699982], "min" : [-0.1653640866279602, -0.03550045192241669, -0.17243841290473938], "name" : "POSITION"}, {"bufferView" : 4, "byteOffset" : 12, "componentType" : 5126, "count" : 3041, "type" : "VEC3", "max" : [0.9942978024482727, 1.0000044107437134, 0.9999878406524658], "min" : [-0.9942895770072937, -1.0000044107437134, -0.9999878406524658], "name" : "NORMAL"}, {"bufferView" : 4, "byteOffset" : 24, "componentType" : 5126, "count" : 3041, "type" : "VEC2", "max" : [1, 1.9900000095367432], "min" : [-1.862645149230957E-07, 1], "name" : "TEXCOORD_0"}, {"bufferView" : 0, "byteOffset" : 47328, "componentType" : 5123, "count" : 11880, "type" : "SCALAR", "max" : [3040], "min" : [0]}, {"bufferView" : 5, "byteOffset" : 0, "componentType" : 5126, "count" : 3041, "type" : "VEC3", "max" : [0.16537845134735107, 0.03349360078573227, 0.17237825691699982], "min" : [-0.1653640866279602, -0.03550045192241669, -0.1723872572183609], "name" : "POSITION"}, {"bufferView" : 5, "byteOffset" : 12, "componentType" : 5126, "count" : 3041, "type" : "VEC3", "max" : [0.9942144155502319, 1.0000044107437134, 0.99998939037323], "min" : [-0.9942144155502319, -1.0000044107437134, -0.99998939037323], "name" : "NORMAL"}, {"bufferView" : 5, "byteOffset" : 24, "componentType" : 5126, "count" : 3041, "type" : "VEC2", "max" : [1, 1.9900000095367432], "min" : [-1.862645149230957E-07, 1], "name" : "TEXCOORD_0"}, {"bufferView" : 0, "byteOffset" : 71088, "componentType" : 5123, "count" : 5724, "type" : "SCALAR", "max" : [1733], "min" : [0]}, {"bufferView" : 6, "byteOffset" : 0, "componentType" : 5126, "count" : 1734, "type" : "VEC3", "max" : [0.5149211287498474, 0.07801830768585205, 0.028655141592025757], "min" : [-0.07801833748817444, -0.0780184268951416, -0.028655022382736206], "name" : "POSITION"}, {"bufferView" : 6, "byteOffset" : 12, "componentType" : 5126, "count" : 1734, "type" : "VEC3", "max" : [0.9952006936073303, 0.9952006936073303, 0.9946314096450806], "min" : [-0.9952006936073303, -0.9952006936073303, -0.9946314096450806], "name" : "NORMAL"}, {"bufferView" : 6, "byteOffset" : 24, "componentType" : 5126, "count" : 1734, "type" : "VEC2", "max" : [1, 1.9897980690002441], "min" : [0, 1], "name" : "TEXCOORD_0"}, {"bufferView" : 0, "byteOffset" : 82536, "componentType" : 5123, "count" : 5580, "type" : "SCALAR", "max" : [1348], "min" : [0]}, {"bufferView" : 7, "byteOffset" : 0, "componentType" : 5126, "count" : 1349, "type" : "VEC3", "max" : [0.7543649673461914, 0.5482771396636963, 0.10022640228271484], "min" : [-0.7457916736602783, -0.5798630714416504, -0.10022637993097305], "name" : "POSITION"}, {"bufferView" : 7, "byteOffset" : 12, "componentType" : 5126, "count" : 1349, "type" : "VEC3", "max" : [0.9941750168800354, 0.994175136089325, 1.0000044107437134], "min" : [-0.9941750168800354, -0.994175136089325, -1.0000044107437134], "name" : "NORMAL"}, {"bufferView" : 7, "byteOffset" : 24, "componentType" : 5126, "count" : 1349, "type" : "VEC2", "max" : [0.875, 2], "min" : [0.125, 1], "name" : "TEXCOORD_0"}, {"bufferView" : 0, "byteOffset" : 93696, "componentType" : 5123, "count" : 2856, "type" : "SCALAR", "max" : [805], "min" : [0]}, {"bufferView" : 8, "byteOffset" : 0, "componentType" : 5126, "count" : 806, "type" : "VEC3", "max" : [0.2925548851490021, 1.4384785890579224, 0.10018505156040192], "min" : [-0.29255515336990356, -0.9735844731330872, -0.10018499940633774], "name" : "POSITION"}, {"bufferView" : 8, "byteOffset" : 12, "componentType" : 5126, "count" : 806, "type" : "VEC3", "max" : [0.9904128909111023, 0.9904128909111023, 1.0000044107437134], "min" : [-0.9904128909111023, -0.9904128909111023, -1.0000044107437134], "name" : "NORMAL"}, {"bufferView" : 8, "byteOffset" : 24, "componentType" : 5126, "count" : 806, "type" : "VEC2", "max" : [0.875, 2], "min" : [0.125, 1], "name" : "TEXCOORD_0"}, {"bufferView" : 0, "byteOffset" : 99408, "componentType" : 5123, "count" : 1548, "type" : "SCALAR", "max" : [442], "min" : [0]}, {"bufferView" : 9, "byteOffset" : 0, "componentType" : 5126, "count" : 443, "type" : "VEC3", "max" : [0.8215749263763428, 0.12139907479286194, 0.05715150758624077], "min" : [-0.8215749263763428, -0.12139907479286194, -0.05715150386095047], "name" : "POSITION"}, {"bufferView" : 9, "byteOffset" : 12, "componentType" : 5126, "count" : 443, "type" : "VEC3", "max" : [0.9904128909111023, 0.9951908588409424, 0.9951908588409424], "min" : [-0.9904128909111023, -0.9951908588409424, -0.9951908588409424], "name" : "NORMAL"}, {"bufferView" : 9, "byteOffset" : 24, "componentType" : 5126, "count" : 443, "type" : "VEC2", "max" : [0.875, 2], "min" : [0.125, 1], "name" : "TEXCOORD_0"}, {"bufferView" : 0, "byteOffset" : 102504, "componentType" : 5123, "count" : 1788, "type" : "SCALAR", "max" : [490], "min" : [0]}, {"bufferView" : 10, "byteOffset" : 0, "componentType" : 5126, "count" : 491, "type" : "VEC3", "max" : [1.045519471168518, 0.7290219664573669, 0.13034245371818542], "min" : [-1.0455193519592285, -0.8930096626281738, -0.13034245371818542], "name" : "POSITION"}, {"bufferView" : 10, "byteOffset" : 12, "componentType" : 5126, "count" : 491, "type" : "VEC3", "max" : [0.9951908588409424, 0.9921406507492065, 0.9951908588409424], "min" : [-0.9951908588409424, -0.9921406507492065, -0.9951908588409424], "name" : "NORMAL"}, {"bufferView" : 10, "byteOffset" : 24, "componentType" : 5126, "count" : 491, "type" : "VEC2", "max" : [0.875, 2], "min" : [0.125, 1], "name" : "TEXCOORD_0"}], "asset" : {"generator" : "Aspose.3D 24.4.1", "version" : "2.0"}, "buffers" : [{"uri" : "data:application/octet-stream;base64,", "byteLength" : 527308}], "bufferViews" : [{"buffer" : 0, "byteOffset" : 0, "byteLength" : 106080, "target" : 34963}, {"buffer" : 0, "byteOffset" : 106084, "byteLength" : 27232, "byteStride" : 32, "target" : 34962}, {"buffer" : 0, "byteOffset" : 133320, "byteLength" : 14592, "byteStride" : 32, "target" : 34962}, {"buffer" : 0, "byteOffset" : 147916, "byteLength" : 30400, "byteStride" : 32, "target" : 34962}, {"buffer" : 0, "byteOffset" : 178320, "byteLength" : 97312, "byteStride" : 32, "target" : 34962}, {"buffer" : 0, "byteOffset" : 275636, "byteLength" : 97312, "byteStride" : 32, "target" : 34962}, {"buffer" : 0, "byteOffset" : 372952, "byteLength" : 55488, "byteStride" : 32, "target" : 34962}, {"buffer" : 0, "byteOffset" : 428444, "byteLength" : 43168, "byteStride" : 32, "target" : 34962}, {"buffer" : 0, "byteOffset" : 471616, "byteLength" : 25792, "byteStride" : 32, "target" : 34962}, {"buffer" : 0, "byteOffset" : 497412, "byteLength" : 14176, "byteStride" : 32, "target" : 34962}, {"buffer" : 0, "byteOffset" : 511592, "byteLength" : 15712, "byteStride" : 32, "target" : 34962}], "materials" : [{"name" : "Material.001", "pbrMetallicRoughness" : {"baseColorFactor" : [0.020288532599806786, 0.020288538187742233, 0.020288556814193726, 1], "metallicFactor" : 0, "roughnessFactor" : 0.5}, "emissiveFactor" : [0, 0, 0], "alphaMode" : "OPAQUE", "doubleSided" : true}, {"name" : "Material.001", "pbrMetallicRoughness" : {"baseColorFactor" : [0.020288532599806786, 0.020288538187742233, 0.020288556814193726, 1], "metallicFactor" : 0, "roughnessFactor" : 0.5}, "emissiveFactor" : [0, 0, 0], "alphaMode" : "OPAQUE", "doubleSided" : true}, {"name" : "Material.001", "pbrMetallicRoughness" : {"baseColorFactor" : [0.020288532599806786, 0.020288538187742233, 0.020288556814193726, 1], "metallicFactor" : 0, "roughnessFactor" : 0.5}, "emissiveFactor" : [0, 0, 0], "alphaMode" : "OPAQUE", "doubleSided" : true}, {"name" : "a2.002", "pbrMetallicRoughness" : {"baseColorFactor" : [0.8879231810569763, 0.24228082597255707, 0.0015177276218309999, 1], "metallicFactor" : 0, "roughnessFactor" : 0.5}, "emissiveFactor" : [0, 0, 0], "alphaMode" : "OPAQUE", "doubleSided" : true}, {"name" : "Material.001", "pbrMetallicRoughness" : {"baseColorFactor" : [0.020288532599806786, 0.020288538187742233, 0.020288556814193726, 1], "metallicFactor" : 0, "roughnessFactor" : 0.5}, "emissiveFactor" : [0, 0, 0], "alphaMode" : "OPAQUE", "doubleSided" : true}, {"name" : "a2.002", "pbrMetallicRoughness" : {"baseColorFactor" : [0.8879231810569763, 0.24228082597255707, 0.0015177276218309999, 1], "metallicFactor" : 0, "roughnessFactor" : 0.5}, "emissiveFactor" : [0, 0, 0], "alphaMode" : "OPAQUE", "doubleSided" : true}, {"name" : "a2.006", "pbrMetallicRoughness" : {"baseColorFactor" : [0.7454034090042114, 0.7835371494293213, 0.7758223414421082, 1], "metallicFactor" : 0, "roughnessFactor" : 0.5}, "emissiveFactor" : [0, 0, 0], "alphaMode" : "OPAQUE", "doubleSided" : true}, {"name" : "a2.006", "pbrMetallicRoughness" : {"baseColorFactor" : [0.7454034090042114, 0.7835371494293213, 0.7758223414421082, 1], "metallicFactor" : 0, "roughnessFactor" : 0.5}, "emissiveFactor" : [0, 0, 0], "alphaMode" : "OPAQUE", "doubleSided" : true}, {"name" : "Material.001", "pbrMetallicRoughness" : {"baseColorFactor" : [0.020288532599806786, 0.020288538187742233, 0.020288556814193726, 1], "metallicFactor" : 0, "roughnessFactor" : 0.5}, "emissiveFactor" : [0, 0, 0], "alphaMode" : "OPAQUE", "doubleSided" : true}, {"name" : "a2.002", "pbrMetallicRoughness" : {"baseColorFactor" : [0.8879231810569763, 0.24228082597255707, 0.0015177276218309999, 1], "metallicFactor" : 0, "roughnessFactor" : 0.5}, "emissiveFactor" : [0, 0, 0], "alphaMode" : "OPAQUE", "doubleSided" : true}], "meshes" : [{"primitives" : [{"attributes" : {"POSITION" : 1, "NORMAL" : 2, "TEXCOORD_0" : 3}, "indices" : 0, "material" : 0, "mode" : 4}]}, {"primitives" : [{"attributes" : {"POSITION" : 5, "NORMAL" : 6, "TEXCOORD_0" : 7}, "indices" : 4, "material" : 1, "mode" : 4}]}, {"primitives" : [{"attributes" : {"POSITION" : 9, "NORMAL" : 10, "TEXCOORD_0" : 11}, "indices" : 8, "material" : 2, "mode" : 4}]}, {"primitives" : [{"attributes" : {"POSITION" : 13, "NORMAL" : 14, "TEXCOORD_0" : 15}, "indices" : 12, "material" : 3, "mode" : 4}]}, {"primitives" : [{"attributes" : {"POSITION" : 17, "NORMAL" : 18, "TEXCOORD_0" : 19}, "indices" : 16, "material" : 4, "mode" : 4}]}, {"primitives" : [{"attributes" : {"POSITION" : 21, "NORMAL" : 22, "TEXCOORD_0" : 23}, "indices" : 20, "material" : 5, "mode" : 4}]}, {"primitives" : [{"attributes" : {"POSITION" : 25, "NORMAL" : 26, "TEXCOORD_0" : 27}, "indices" : 24, "material" : 6, "mode" : 4}]}, {"primitives" : [{"attributes" : {"POSITION" : 29, "NORMAL" : 30, "TEXCOORD_0" : 31}, "indices" : 28, "material" : 7, "mode" : 4}]}, {"primitives" : [{"attributes" : {"POSITION" : 33, "NORMAL" : 34, "TEXCOORD_0" : 35}, "indices" : 32, "material" : 8, "mode" : 4}]}, {"primitives" : [{"attributes" : {"POSITION" : 37, "NORMAL" : 38, "TEXCOORD_0" : 39}, "indices" : 36, "material" : 9, "mode" : 4}]}], "nodes" : [{"matrix" : [1.1214036196665031, 0, 0.18265117457952235, 0, 0, 1.3512628078460693, 0, 0, -0.21722748010345005, 0, 1.3336880150912154, 0, -0.10456810891628265, -1.5835740566253662, -1.2623430490493774, 1], "mesh" : 0, "name" : "Cube.002"}, {"matrix" : [2.1024785842743148, 0, 0.3717809888013628, 0, 0, 2.135096549987793, 0, 0, -0.3717809888013628, 0, 2.1024785842743148, 0, -0.15269635617733002, 0.3312265872955322, -1.0039159059524536, 1], "mesh" : 1, "name" : "Cube.005"}, {"matrix" : [2.1024785842743148, 0, 0.3717809888013628, 0, 0, 2.135096549987793, 0, 0, -0.3717809888013628, 0, 2.1024785842743148, 0, -0.10087035596370697, 0.27891993522644043, -1.2970000505447388, 1], "mesh" : 2, "name" : "Cube.006"}, {"matrix" : [3.518415821295683, -1.9212942395835637, 0.6517829340363732, 0, 0.7274423608039967, -0.02336638926230303, -3.9957135812363793, 0, 1.893943908607473, 3.578203443369643, 0.3238783593502194, 0, 1.2385764122009277, 1.0772559642791748, -0.20705974102020264, 1], "mesh" : 3, "name" : "Cylinder.025"}, {"matrix" : [2.470403917914375, 0.018884388786097404, 0.4550147720677962, 0, 0.4550706024344923, -0.005993557802880869, -2.47045859613281, 0, -0.01748629760033102, 2.511952049572881, -0.00931528159387312, 0, 0.3005112111568451, 1.5741605758666992, -0.26020610332489014, 1], "mesh" : 4, "name" : "Cylinder.008"}, {"matrix" : [1.1292626978318494, -5.438661851670076E-05, 0.19961557903364197, 0, -0.00035392855293265197, 1.1467673713948325, 0.0023146851730784382, 0, -0.19961529342628742, -0.0023409559940677054, 1.129260444287831, 0, -1.0434596538543701, 0.9657854437828064, -0.7003340721130371, 1], "mesh" : 5, "name" : "Cylinder.007"}, {"matrix" : [0.5147961083540884, -0.24376369881412732, 0.09049326999110889, 0, 0.23985707262125877, 0.5226878812359682, 0.043482173197499634, 0, -0.10039096371314302, -0.001177325447016949, 0.5679305109582637, 0, -0.6840948462486267, 0.38290441036224365, -0.6731453537940979, 1], "mesh" : 6, "name" : "Cube.021"}, {"matrix" : [0.0001341178434384662, -0.43421284163593676, -0.0008763994782474736, 0, 0.4275848459083029, -2.0482348230779124E-05, 0.07558257252581098, 0, -0.07558246151757722, -0.0008863637464471293, 0.42758398831359273, 0, -0.7315483689308167, -0.10860288143157959, -0.6825527548789978, 1], "mesh" : 7, "name" : "Cube.020"}, {"matrix" : [1.1870438750725631, -5.716942791089232E-05, 0.20982934344319484, 0, -0.0003720380369468605, 1.2054440879474029, 0.002433120811549703, 0, -0.20982904216037782, -0.002460736076598304, 1.1870415002146022, 0, -0.2139197736978531, 0.9658660292625427, -0.6135970950126648, 1], "mesh" : 8, "name" : "Cube.018"}, {"matrix" : [1.1322769025426946, -5.453180375840211E-05, 0.20014840641919415, 0, -0.0003548732332342597, 1.1498281827325225, 0.0023208632467746995, 0, -0.20014805774273856, -0.002347203702180223, 1.1322742905027545, 0, -0.20184944570064545, 0.49501293897628784, -0.7431755661964417, 1], "mesh" : 9, "name" : "Cube.016"}], "scene" : 0, "scenes" : [{"nodes" : [0, 1, 2, 3, 4, 5, 6, 7, 8, 9]}]}