<svg xmlns="http://www.w3.org/2000/svg"  viewBox="0 0 100 100" width="100px" height="100px"><path fill="#f1bc19" d="M77 12A1 1 0 1 0 77 14A1 1 0 1 0 77 12Z"/><path fill="#e6edb7" d="M50 13A37 37 0 1 0 50 87A37 37 0 1 0 50 13Z"/><path fill="#f1bc19" d="M83 11A4 4 0 1 0 83 19A4 4 0 1 0 83 11Z"/><path fill="#88ae45" d="M87 22A2 2 0 1 0 87 26A2 2 0 1 0 87 22Z"/><path fill="#fbcd59" d="M81 74A2 2 0 1 0 81 78 2 2 0 1 0 81 74zM15 59A4 4 0 1 0 15 67 4 4 0 1 0 15 59z"/><path fill="#88ae45" d="M25 85A2 2 0 1 0 25 89A2 2 0 1 0 25 85Z"/><path fill="#fff" d="M18.5 49A2.5 2.5 0 1 0 18.5 54 2.5 2.5 0 1 0 18.5 49zM79.5 32A1.5 1.5 0 1 0 79.5 35 1.5 1.5 0 1 0 79.5 32z"/><path fill="#78cdd4" d="M48.953,74.327c-0.057,0-0.116-0.031-0.176-0.093L34.2,59.216V40.784l14.577-15.019 c0.06-0.062,0.119-0.093,0.176-0.093c0.146,0,0.347,0.186,0.347,0.533v47.588c0,0.172-0.05,0.322-0.143,0.425 C49.096,74.286,49.02,74.327,48.953,74.327z"/><path fill="#472b29" d="M48.6,26.952l-0.001,46.094L34.9,58.932V41.068L48.6,26.952 M48.953,24.973 c-0.234,0-0.474,0.095-0.678,0.305L33.5,40.5v19l14.774,15.222c0.205,0.21,0.444,0.305,0.678,0.305 c0.537,0,1.047-0.498,1.047-1.233V26.206C50,25.47,49.49,24.973,48.953,24.973L48.953,24.973z"/><path fill="#84a7d7" d="M27.688,59.3c-1.647,0-2.987-1.34-2.987-2.987V43.688c0-1.647,1.34-2.987,2.987-2.987H34.3v18.6 H27.688z"/><path fill="#472b29" d="M33.6,41.4v17.2h-5.912c-1.261,0-2.287-1.026-2.287-2.288V43.688c0-1.261,1.026-2.288,2.287-2.288 H33.6 M35,40h-7.313C25.651,40,24,41.651,24,43.688v12.625C24,58.349,25.651,60,27.688,60H35V40L35,40z"/><g><path fill="#f9e65c" d="M63.961,69.917c-0.673,0-1.33-0.339-1.707-0.955c-0.577-0.941-0.282-2.173,0.66-2.75 C68.604,62.725,72,56.664,72,50c0-6.635-3.374-12.681-9.025-16.175c-0.939-0.581-1.23-1.813-0.649-2.753 c0.582-0.939,1.813-1.228,2.753-0.649C71.917,34.65,76,41.97,76,50c0,8.066-4.111,15.402-10.996,19.622 C64.678,69.822,64.317,69.917,63.961,69.917z"/></g><g><path fill="#f9e65c" d="M56.828,64.734c-0.758,0-1.483-0.433-1.819-1.167c-0.46-1.004-0.02-2.19,0.984-2.651 C60.25,58.965,63,54.68,63,50c0-4.667-2.74-8.947-6.98-10.903c-1.003-0.463-1.441-1.651-0.978-2.654 c0.462-1.004,1.648-1.442,2.654-0.979C63.348,38.072,67,43.778,67,50c0,6.239-3.667,11.951-9.34,14.553 C57.39,64.676,57.106,64.734,56.828,64.734z"/></g><g><path fill="#472b29" d="M74.476,42.218c-0.201,0-0.391-0.122-0.467-0.32c-0.688-1.794-1.606-3.492-2.729-5.046 c-0.162-0.225-0.111-0.537,0.113-0.698s0.537-0.108,0.698,0.112c1.173,1.625,2.132,3.398,2.852,5.272 c0.099,0.258-0.03,0.548-0.288,0.646C74.596,42.207,74.535,42.218,74.476,42.218z"/></g><g><path fill="#472b29" d="M63.961,70.417c-0.878,0-1.675-0.446-2.133-1.194c-0.349-0.568-0.456-1.239-0.299-1.889 c0.156-0.649,0.555-1.199,1.125-1.549C68.193,62.39,71.5,56.489,71.5,50c0-6.459-3.285-12.347-8.789-15.75 c-1.172-0.725-1.537-2.269-0.812-3.44c0.724-1.17,2.267-1.537,3.44-0.813c1.706,1.054,3.268,2.313,4.643,3.742 c0.191,0.199,0.185,0.516-0.014,0.707c-0.199,0.192-0.515,0.185-0.707-0.014c-1.317-1.369-2.813-2.575-4.446-3.584 c-0.705-0.435-1.631-0.215-2.065,0.486c-0.211,0.341-0.276,0.743-0.184,1.134c0.092,0.39,0.331,0.721,0.671,0.932 c5.8,3.586,9.262,9.791,9.262,16.6c0,6.84-3.486,13.06-9.325,16.639c-0.342,0.209-0.581,0.539-0.675,0.929 c-0.093,0.39-0.03,0.792,0.18,1.133c0.418,0.685,1.376,0.914,2.062,0.496C71.479,65.067,75.5,57.892,75.5,50 c0-1.778-0.206-3.548-0.612-5.26c-0.064-0.269,0.102-0.538,0.371-0.602c0.271-0.068,0.539,0.102,0.602,0.371 c0.424,1.786,0.64,3.634,0.64,5.49c0,8.242-4.2,15.737-11.235,20.049C64.873,70.289,64.422,70.417,63.961,70.417z"/></g><g><path fill="#472b29" d="M56.828,65.234c-0.976,0-1.868-0.572-2.274-1.459c-0.574-1.252-0.022-2.738,1.23-3.313 C59.864,58.592,62.5,54.485,62.5,50c0-4.473-2.626-8.574-6.69-10.449c-0.606-0.28-1.067-0.779-1.298-1.406 c-0.231-0.626-0.204-1.306,0.076-1.912s0.778-1.067,1.404-1.299c0.626-0.229,1.306-0.203,1.913,0.076 C63.734,37.7,67.5,43.584,67.5,50c0,3.568-1.194,7.109-3.362,9.971c-0.167,0.219-0.48,0.263-0.7,0.097 c-0.22-0.167-0.264-0.48-0.097-0.7C65.378,56.678,66.5,53.352,66.5,50c0-6.027-3.538-11.555-9.014-14.082 c-0.364-0.17-0.773-0.187-1.148-0.046c-0.375,0.139-0.674,0.415-0.842,0.779c-0.347,0.752-0.018,1.645,0.733,1.991 C60.646,40.681,63.5,45.139,63.5,50c0,4.875-2.865,9.338-7.299,11.37c-0.751,0.346-1.083,1.237-0.738,1.989 c0.333,0.726,1.25,1.072,1.989,0.738c1.459-0.668,2.802-1.559,3.99-2.646c0.203-0.186,0.52-0.173,0.706,0.031 s0.173,0.521-0.031,0.707c-1.265,1.157-2.694,2.105-4.249,2.817C57.537,65.158,57.188,65.234,56.828,65.234z"/></g><g><path fill="#472b29" d="M45.5,34c-0.276,0-0.5-0.224-0.5-0.5v-4c0-0.276,0.224-0.5,0.5-0.5s0.5,0.224,0.5,0.5v4 C46,33.776,45.776,34,45.5,34z"/></g><g><path fill="#472b29" d="M45.5,41c-0.276,0-0.5-0.224-0.5-0.5v-4c0-0.276,0.224-0.5,0.5-0.5s0.5,0.224,0.5,0.5v4 C46,40.776,45.776,41,45.5,41z"/></g><g><path fill="#472b29" d="M30.5,59c-0.276,0-0.5-0.224-0.5-0.5v-9c0-0.276,0.224-0.5,0.5-0.5s0.5,0.224,0.5,0.5v9 C31,58.776,30.776,59,30.5,59z"/></g><g><path fill="#472b29" d="M30.5,46c-0.276,0-0.5-0.224-0.5-0.5v-4c0-0.276,0.224-0.5,0.5-0.5s0.5,0.224,0.5,0.5v4 C31,45.776,30.776,46,30.5,46z"/></g><g><path fill="#472b29" d="M45.5,67c-0.276,0-0.5-0.224-0.5-0.5v-23c0-0.276,0.224-0.5,0.5-0.5s0.5,0.224,0.5,0.5v23 C46,66.776,45.776,67,45.5,67z"/></g></svg>