<svg xmlns="http://www.w3.org/2000/svg" baseProfile="basic" viewBox="0 0 48 48"><path fill="#12d9e3" d="M23,16H9c-2.206,0-4,1.794-4,4v8c0,2.206,1.794,4,4,4h14c0.553,0,1-0.447,1-1V17	C24,16.447,23.553,16,23,16z"/><path fill="#12d9e3" d="M28.927,5.624c-0.119-0.294-0.371-0.514-0.679-0.593c-0.307-0.077-0.634-0.007-0.88,0.193l-13,10.588	C14.136,16.002,14,16.287,14,16.588v14.824c0,0.301,0.136,0.586,0.368,0.775l13,10.588C27.549,42.922,27.772,43,28,43	c0.083,0,0.166-0.011,0.248-0.031c0.308-0.079,0.56-0.299,0.679-0.593C29.012,42.167,31,37.113,31,24S29.012,5.833,28.927,5.624z"/><path fill="#324561" d="M35.489,32.22c-0.134,0-0.27-0.026-0.4-0.084c-0.506-0.222-0.736-0.812-0.515-1.317	c1.893-4.322,1.893-9.294-0.001-13.639c-0.221-0.506,0.011-1.096,0.518-1.316s1.097,0.013,1.316,0.518	c2.115,4.854,2.114,10.408-0.001,15.24C36.242,31.996,35.875,32.22,35.489,32.22z"/><path fill="#324561" d="M40.279,36.14c-0.155,0-0.313-0.036-0.462-0.113c-0.489-0.256-0.679-0.859-0.424-1.35	c3.487-6.686,3.487-14.668,0-21.354c-0.255-0.49-0.065-1.094,0.424-1.35c0.493-0.257,1.094-0.064,1.35,0.424	c3.789,7.266,3.789,15.939,0,23.205C40.988,35.944,40.641,36.14,40.279,36.14z"/><path fill="#324561" d="M14,33c-0.553,0-1-0.447-1-1V16c0-0.553,0.447-1,1-1s1,0.447,1,1v16C15,32.553,14.553,33,14,33z"/></svg>