<svg xmlns="http://www.w3.org/2000/svg" baseProfile="basic" viewBox="0 0 48 48"><path fill="#12d9e3" d="M20,16H6c-2.206,0-4,1.794-4,4v8c0,2.206,1.794,4,4,4h14c0.553,0,1-0.447,1-1V17	C21,16.447,20.553,16,20,16z"/><path fill="#12d9e3" d="M25.927,5.624c-0.119-0.294-0.371-0.514-0.679-0.593c-0.307-0.077-0.633-0.007-0.88,0.193l-13,10.588	C11.136,16.002,11,16.287,11,16.588v14.824c0,0.301,0.136,0.586,0.368,0.775l13,10.588C24.549,42.922,24.772,43,25,43	c0.083,0,0.166-0.011,0.248-0.031c0.308-0.079,0.56-0.299,0.679-0.593C26.012,42.167,28,37.113,28,24S26.012,5.833,25.927,5.624z"/><path fill="#324561" d="M11,33c-0.553,0-1-0.447-1-1V16c0-0.553,0.447-1,1-1s1,0.447,1,1v16C12,32.553,11.553,33,11,33z"/><path fill="#324561" d="M33,32c-0.256,0-0.512-0.098-0.707-0.293c-0.391-0.391-0.391-1.023,0-1.414l14-14	c0.391-0.391,1.023-0.391,1.414,0s0.391,1.023,0,1.414l-14,14C33.512,31.902,33.256,32,33,32z"/><path fill="#324561" d="M47,32c-0.256,0-0.512-0.098-0.707-0.293l-14-14c-0.391-0.391-0.391-1.023,0-1.414	s1.023-0.391,1.414,0l14,14c0.391,0.391,0.391,1.023,0,1.414C47.512,31.902,47.256,32,47,32z"/></svg>