<svg xmlns="http://www.w3.org/2000/svg"  viewBox="0 0 100 100" width="100px" height="100px"><path fill="#ee3e54" d="M13 27A2 2 0 1 0 13 31A2 2 0 1 0 13 27Z"/><path fill="#f1bc19" d="M77 12A1 1 0 1 0 77 14A1 1 0 1 0 77 12Z"/><path fill="#fce0a2" d="M50 13A37 37 0 1 0 50 87A37 37 0 1 0 50 13Z"/><path fill="#f1bc19" d="M83 11A4 4 0 1 0 83 19A4 4 0 1 0 83 11Z"/><path fill="#ee3e54" d="M87 22A2 2 0 1 0 87 26A2 2 0 1 0 87 22Z"/><path fill="#fbcd59" d="M81 74A2 2 0 1 0 81 78 2 2 0 1 0 81 74zM15 59A4 4 0 1 0 15 67 4 4 0 1 0 15 59z"/><path fill="#ee3e54" d="M25 85A2 2 0 1 0 25 89A2 2 0 1 0 25 85Z"/><path fill="#fff" d="M18.5 51A2.5 2.5 0 1 0 18.5 56A2.5 2.5 0 1 0 18.5 51Z"/><path fill="#f1bc19" d="M21 66A1 1 0 1 0 21 68A1 1 0 1 0 21 66Z"/><path fill="#fff" d="M80 33A1 1 0 1 0 80 35A1 1 0 1 0 80 33Z"/><g><path fill="#a1d3a2" d="M37.107,70.3c-1.328,0-2.407-1.08-2.407-2.407V31.107c0-1.327,1.08-2.407,2.407-2.407h6.285 c1.328,0,2.407,1.08,2.407,2.407v36.785c0,1.327-1.08,2.407-2.407,2.407H37.107z"/><path fill="#472b29" d="M43.393,29.4c0.941,0,1.707,0.766,1.707,1.708v36.785c0,0.941-0.766,1.708-1.707,1.708h-6.285 c-0.941,0-1.707-0.766-1.707-1.708V31.107c0-0.941,0.766-1.708,1.707-1.708H43.393 M43.393,28h-6.285 C35.391,28,34,29.391,34,31.107v36.785C34,69.609,35.391,71,37.107,71h6.285c1.716,0,3.107-1.391,3.107-3.107V31.107 C46.5,29.391,45.109,28,43.393,28L43.393,28z"/></g><g><path fill="#a1d3a2" d="M57.107,70.3c-1.328,0-2.407-1.08-2.407-2.407V31.107c0-1.327,1.08-2.407,2.407-2.407h6.285 c1.328,0,2.407,1.08,2.407,2.407v36.785c0,1.327-1.08,2.407-2.407,2.407H57.107z"/><path fill="#472b29" d="M63.393,29.4c0.941,0,1.707,0.766,1.707,1.708v36.785c0,0.941-0.766,1.708-1.707,1.708h-6.285 c-0.941,0-1.707-0.766-1.707-1.708V31.107c0-0.941,0.766-1.708,1.707-1.708H63.393 M63.393,28h-6.285 C55.391,28,54,29.391,54,31.107v36.785C54,69.609,55.391,71,57.107,71h6.285c1.716,0,3.107-1.391,3.107-3.107V31.107 C66.5,29.391,65.109,28,63.393,28L63.393,28z"/></g><g><path fill="#472b29" d="M42.5,67.375c-0.276,0-0.5-0.224-0.5-0.5V48c0-0.276,0.224-0.5,0.5-0.5S43,47.724,43,48v18.875 C43,67.151,42.776,67.375,42.5,67.375z"/></g><g><path fill="#472b29" d="M42.5,45.5c-0.276,0-0.5-0.224-0.5-0.5v-7c0-0.276,0.224-0.5,0.5-0.5S43,37.724,43,38v7 C43,45.276,42.776,45.5,42.5,45.5z"/></g><g><path fill="#472b29" d="M42.5,35.375c-0.276,0-0.5-0.224-0.5-0.5V32c0-0.276,0.224-0.5,0.5-0.5S43,31.724,43,32v2.875 C43,35.151,42.776,35.375,42.5,35.375z"/></g><g><path fill="#472b29" d="M62.5,67.375c-0.276,0-0.5-0.224-0.5-0.5V51c0-0.276,0.224-0.5,0.5-0.5S63,50.724,63,51v15.875 C63,67.151,62.776,67.375,62.5,67.375z"/></g><g><path fill="#472b29" d="M62.5,44c-0.276,0-0.5-0.224-0.5-0.5V32c0-0.276,0.224-0.5,0.5-0.5S63,31.724,63,32v11.5 C63,43.776,62.776,44,62.5,44z"/></g><g><path fill="#472b29" d="M62.5,49.5c-0.276,0-0.5-0.224-0.5-0.5v-3c0-0.276,0.224-0.5,0.5-0.5S63,45.724,63,46v3 C63,49.276,62.776,49.5,62.5,49.5z"/></g></svg>